<svg xmlns="http://www.w3.org/2000/svg" xmlns:xlink="http://www.w3.org/1999/xlink" viewBox="0,0,256,256" width="96px" height="96px"><g fill="#ffffff" fill-rule="nonzero" stroke="none" stroke-width="1" stroke-linecap="butt" stroke-linejoin="miter" stroke-miterlimit="10" stroke-dasharray="" stroke-dashoffset="0" font-family="none" font-weight="none" font-size="none" text-anchor="none" style="mix-blend-mode: normal"><g transform="scale(8,8)"><path d="M5,5v22h22v-22zM7,7h18v18h-18zM12.5,9c-0.82766,0.00108 -1.49805,0.67233 -1.49805,1.5h-0.00195v11.5c0,0.552 0.448,1 1,1c0.552,0 1,-0.448 1,-1v-4.25586c0.78173,-0.28844 1.6452,-0.50977 2.47852,-0.50977c1.579,0 2.19086,0.81641 3.50586,0.81641c0.939,0 1.81386,-0.31792 2.63086,-0.66992c0.205,-0.088 0.38086,-0.17586 0.38086,-0.38086h0.00586v-5.61914c0,-0.205 -0.20641,-0.38086 -0.44141,-0.38086c-0.294,0 -1.52086,0.78711 -2.63086,0.78711c-0.23,0 -0.43563,-0.02919 -0.64063,-0.11719c-0.993,-0.377 -1.86852,-0.66992 -2.97852,-0.66992c-0.48977,0 -0.99142,0.0772 -1.48242,0.19531c0.24317,-0.46482 0.22584,-1.02291 -0.0457,-1.47175c-0.27154,-0.44884 -0.75783,-0.72321 -1.28242,-0.72356z"></path></g></g></svg>